<?xml version="1.0" encoding="UTF-8"?> <svg xmlns="http://www.w3.org/2000/svg" width="16666" height="37500" viewBox="0 0 16666 37500"><g id="Layer-1" opacity="0.207916"><g id="Group"><clipPath id="clipPath1"><path clip-rule="evenodd" d="M 0 37500 L 16666.666016 37500 L 16666.666016 0 L 0 0 L 0 37500 Z"></path></clipPath><g id="g1" clip-path="url(#clipPath1)"></g><clipPath id="clipPath2"><path clip-rule="evenodd" d="M 0 37499.955241 L 0 32149.544596 L 0 31900.380534 L 0 27625.649577 C 2019.415161 25568.215007 4652.863281 24057.707194 7405.519531 23135.646647 C 9155.816406 22549.111491 11107.887695 22081.280436 12237.585938 20621.863444 C 12806.621094 19887.289225 13059.022461 19004.658366 13059.022461 18096.287272 C 13059.022461 17713.734538 13014.172852 17326.324382 12929.448242 16943.638835 C 12665.864258 15753.884928 12015.791992 14608.332194 11123.466797 13781.103678 C 10042.474609 12778.982585 8714.8125 12137.209147 7303.056152 11684.785319 L 6857.368164 11548.7736 C 6313.206543 11390.754069 5759.144531 11257.5861 5204.353027 11139.884928 C 4860.788574 11067.050944 4516.858887 11000.099772 4174.847656 10936.7736 C 2783.962891 10679.418132 1363.288452 10455.673991 0 10083.62321 L 0 5423.882975 L 128.879379 5525.113444 C 85.754173 5491.783366 42.786362 5457.937663 0 5423.882975 L 0 4491.377116 L 0 -0.00179 L 97.452477 -0.00179 C 95.171326 65.396647 94.041855 130.74821 94.041855 196.02946 C 94.041855 1440.146647 500.584473 2675.861491 1209.434937 3698.736491 C 1854.179932 4792.343913 2817.091309 5741.984538 3880.23291 6501.888835 C 4114.515625 6669.228678 4353.771484 6827.486491 4595.382813 6976.013835 C 5046.228027 7252.802897 5510.20459 7507.152507 5981.071289 7748.982585 C 7781.034668 8673.576335 9683.461914 9416.933757 11359.325195 10550.384928 C 12007.856445 10989.062663 12626.618164 11513.474772 13164.835938 12102.798991 C 14263.505859 13305.882975 15027.301758 14779.937663 15027.301758 16350.361491 C 15027.301758 16518.6486 15018.529297 16687.943522 15000.460938 16858.170085 C 14717.350586 19527.738444 12353.920898 21389.884928 10057.740234 22846.578288 C 9930.8125 22927.099772 9804.103516 23006.421061 9678.0625 23084.468913 C 9429.546875 23238.328288 9178.241211 23394.869303 8926.764648 23555.127116 C 8424.941406 23874.739421 7922.342285 24208.840007 7439.849121 24563.959147 C 5819.852051 25756.217936 4425.911133 27185.980632 4045.299561 29106.028483 C 3976.302246 29454.052897 3944.412598 29800.714518 3944.412598 30145.300456 C 3944.412598 30424.741862 3965.429688 30702.879069 4004.613037 30979.372233 C 4144.742676 31967.525553 4517.780762 32934.570475 4998.210449 33867.073405 L 5100.504883 34062.274089 C 5211.086914 34269.384684 5326.55957 34474.837077 5445.405273 34678.230632 C 5788.484863 35265.047038 6160.759766 35835.620158 6528.812012 36386.633341 C 6776.538574 36757.706706 7024.436035 37128.881846 7272.160645 37499.955241 L 0 37499.955241 Z"></path></clipPath><g id="g2" clip-path="url(#clipPath2)"><linearGradient id="linearGradient1" x1="5442.55756" y1="47878.661257" x2="-16335.296099" y2="6421.003794" gradientUnits="userSpaceOnUse"><stop offset="0" stop-color="#e7397f" stop-opacity="1"></stop><stop offset="1" stop-color="#f7f2a5" stop-opacity="1"></stop></linearGradient><path id="Path" fill="url(#linearGradient1)" stroke="none" d="M 0 37499.957031 L 15027.301758 37499.957031 L 15027.301758 0 L 0 0 L 0 37499.957031 Z"></path></g></g></g></svg> 